<?xml version="1.0" standalone="no"?>
<!DOCTYPE svg PUBLIC "-//W3C//DTD SVG 20010904//EN"
 "http://www.w3.org/TR/2001/REC-SVG-20010904/DTD/svg10.dtd">
<svg version="1.0" xmlns="http://www.w3.org/2000/svg"
 width="2000.000000pt" height="2000.000000pt" viewBox="0 0 2000.000000 2000.000000"
 preserveAspectRatio="xMidYMid meet">
<metadata>
Created by potrace 1.14, written by Peter Selinger 2001-2017
</metadata>
<g transform="translate(0.000000,2000.000000) scale(0.100000,-0.100000)"
fill="#000000" stroke="none">
<path d="M9893 19070 c-177 -32 -341 -146 -436 -302 -56 -93 -79 -175 -85
-299 -7 -182 46 -323 172 -457 81 -85 151 -130 261 -168 111 -38 264 -40 375
-6 222 70 378 235 436 462 24 95 15 262 -18 352 -72 194 -224 340 -412 397
-80 25 -218 34 -293 21z"/>
<path d="M7766 17375 c-442 -92 -746 -458 -746 -898 0 -258 83 -458 265 -643
185 -187 390 -274 650 -274 423 0 778 277 891 696 15 54 19 102 18 224 -1 138
-4 165 -28 244 -97 319 -337 554 -651 637 -104 27 -301 34 -399 14z"/>
<path d="M10170 16314 c-14 -2 -59 -9 -100 -15 -156 -23 -349 -101 -500 -202
-96 -64 -263 -231 -327 -327 -293 -438 -296 -986 -6 -1423 62 -93 198 -235
294 -307 142 -105 325 -187 510 -227 116 -25 370 -24 489 1 259 56 489 182
665 367 137 145 230 299 290 483 47 144 60 231 59 396 0 345 -123 639 -369
885 -185 186 -392 297 -650 350 -77 16 -304 28 -355 19z"/>
<path d="M11960 14336 c-86 -19 -150 -55 -211 -117 -169 -171 -169 -431 0
-600 249 -248 665 -113 723 236 37 220 -115 437 -340 484 -65 14 -101 13 -172
-3z"/>
<path d="M8333 14115 c-129 -28 -237 -113 -295 -232 -32 -65 -33 -73 -33 -184
0 -113 1 -117 37 -191 57 -114 150 -191 273 -222 315 -83 605 207 521 520 -43
161 -176 283 -340 313 -72 13 -84 13 -163 -4z"/>
<path d="M6824 13000 c-70 -10 -118 -27 -194 -66 -130 -68 -235 -189 -288
-334 l-27 -75 -3 -523 c-3 -581 -3 -584 63 -717 65 -134 200 -251 348 -303 60
-20 97 -25 215 -30 l142 -5 0 -1626 -1 -1626 -107 -65 c-161 -98 -604 -390
-810 -533 -100 -70 -186 -127 -191 -127 -12 0 -192 140 -386 299 -788 645
-1339 1253 -1576 1736 -103 212 -135 331 -127 474 10 168 124 278 374 357 404
128 1056 116 1864 -36 145 -27 401 -80 463 -95 l27 -7 0 340 c0 188 -4 343 -8
346 -31 19 -604 122 -867 156 -599 77 -1172 67 -1550 -26 -511 -126 -837 -404
-947 -805 -20 -73 -23 -107 -23 -259 0 -200 12 -271 77 -468 285 -861 1396
-1989 3088 -3134 655 -443 1426 -900 2175 -1288 88 -45 214 -111 280 -145 181
-95 677 -332 965 -462 1286 -579 2441 -984 3515 -1233 1271 -294 2244 -302
2843 -24 128 59 221 124 326 224 207 199 305 433 306 727 1 554 -372 1196
-1145 1969 -302 302 -555 528 -905 808 -74 60 -139 112 -143 116 -4 4 58 60
139 125 772 619 1375 1246 1707 1774 153 244 274 522 322 741 23 102 31 341
15 438 -26 165 -98 325 -204 458 -251 313 -698 484 -1346 513 -161 8 -224 7
-460 -4 -492 -23 -1105 -125 -1817 -305 l-33 -8 0 338 0 337 143 6 c117 4 155
9 215 30 154 53 283 168 352 312 65 137 65 137 65 685 0 553 0 553 -72 700
-66 135 -206 251 -373 307 -53 17 -171 18 -3215 19 -1738 1 -3183 -2 -3211 -6z
m6104 -1022 l-3 -263 -2925 0 -2925 0 -3 263 -2 262 2930 0 2930 0 -2 -262z
m-770 -3645 l-3 -2616 -179 -103 c-99 -57 -183 -101 -187 -98 -5 3 -9 1016 -9
2252 0 1236 0 2257 0 2270 l0 23 -422 -3 -423 -4 -90 -28 c-196 -60 -362 -151
-695 -383 -441 -306 -658 -427 -916 -512 -301 -99 -631 -117 -932 -52 -80 17
-81 17 -86 -3 -3 -12 -6 -817 -6 -1790 0 -973 -1 -1770 -3 -1772 -2 -2 -84 43
-183 100 l-179 103 -3 2616 -2 2617 2160 0 2160 0 -2 -2617z m3067 1587 c387
-23 660 -102 794 -229 70 -66 93 -118 99 -219 8 -142 -30 -278 -135 -485 -268
-528 -898 -1198 -1780 -1890 -89 -70 -167 -127 -173 -127 -6 0 -77 46 -158
103 -200 140 -448 306 -467 313 -13 5 -15 -39 -15 -394 l0 -401 30 -18 c17 -9
29 -22 27 -28 -2 -5 -120 -88 -263 -184 l-259 -173 -3 1693 c-1 1240 1 1695 9
1700 17 10 521 133 689 168 471 98 881 156 1190 168 85 3 157 7 159 9 7 6 75
4 256 -6z m-8145 -3376 c0 -281 -3 -354 -12 -348 -54 33 -296 193 -396 262
-109 74 -122 86 -109 99 18 19 499 342 510 342 4 1 7 -159 7 -355z m7088 -521
c838 -658 1432 -1266 1742 -1783 149 -248 218 -455 208 -624 -5 -67 -11 -95
-34 -136 -79 -144 -281 -242 -607 -291 -118 -18 -187 -22 -407 -23 -552 -1
-1182 94 -1964 296 l-198 51 6 60 c3 33 6 457 6 941 l0 882 168 104 c183 114
679 444 837 558 55 39 102 71 103 72 2 0 65 -48 140 -107z m-2008 -1682 l0
-600 -177 60 c-97 33 -183 65 -190 71 -11 9 -13 93 -13 434 1 364 4 425 17
435 19 16 345 198 356 199 4 0 7 -270 7 -599z"/>
<path d="M4890 6114 c-477 -414 -869 -821 -1137 -1179 -272 -363 -454 -725
-520 -1035 -27 -128 -24 -405 5 -515 27 -98 98 -248 156 -329 127 -178 344
-330 596 -421 435 -155 1080 -181 1840 -74 945 133 2110 466 3347 957 111 44
209 84 217 89 12 6 -37 33 -182 102 -108 52 -374 183 -590 292 -216 110 -395
199 -397 199 -3 0 -6 -75 -7 -167 l-3 -166 -180 -63 c-99 -35 -183 -63 -187
-63 -5 -1 -8 151 -8 337 l0 337 -118 64 c-148 82 -415 235 -532 306 -50 30
-95 55 -101 55 -7 0 -9 -214 -7 -664 3 -658 3 -665 -17 -671 -11 -3 -137 -35
-280 -71 -480 -120 -962 -207 -1390 -250 -256 -26 -695 -24 -875 4 -324 50
-524 147 -605 294 -29 51 -30 58 -29 178 0 115 3 133 34 225 165 486 716 1146
1528 1828 72 62 132 115 132 118 0 4 -80 66 -177 139 -98 73 -217 164 -265
202 -48 37 -91 68 -95 68 -4 0 -73 -57 -153 -126z"/>
<path d="M9870 3294 c-443 -183 -1173 -465 -1317 -509 -21 -7 -15 -22 33 -82
193 -241 475 -443 759 -546 100 -35 264 -74 377 -88 148 -18 566 -6 683 19
283 61 521 172 735 341 124 98 336 329 318 346 -2 3 -108 43 -234 89 -318 116
-625 237 -935 367 -145 61 -268 112 -274 114 -5 2 -71 -21 -145 -51z"/>
<path d="M8090 2629 c-73 -26 -518 -163 -600 -184 -36 -9 -67 -18 -69 -20 -6
-6 68 -134 140 -241 441 -660 1143 -1108 1924 -1228 227 -35 539 -45 795 -26
685 52 1302 330 1784 804 135 132 215 224 317 366 75 103 199 301 199 317 0 5
-78 30 -172 57 -95 28 -256 76 -358 109 -102 33 -192 61 -201 64 -10 3 -28
-15 -54 -54 -103 -156 -292 -357 -440 -470 -257 -194 -531 -324 -816 -386
-202 -45 -280 -52 -544 -52 -273 1 -386 13 -590 65 -475 120 -930 438 -1192
831 -25 38 -51 69 -57 68 -6 0 -36 -9 -66 -20z"/>
</g>
</svg>
